<svg xmlns="http://www.w3.org/2000/svg"  viewBox="0 0 16 16" width="64px" height="64px"><path d="M 5.4921875 2 A 0.50005 0.50005 0 0 0 5.2773438 2.0527344 L 1.2773438 4.0527344 A 0.50005 0.50005 0 0 0 1.1464844 4.8535156 L 2.7929688 6.5 L 1.1464844 8.1464844 A 0.50005 0.50005 0 0 0 1.2773438 8.9472656 L 3 9.8085938 L 3 12.5 A 0.50005 0.50005 0 0 0 3.296875 12.957031 L 7.796875 14.957031 A 0.50005 0.50005 0 0 0 8.203125 14.957031 L 12.703125 12.957031 A 0.50005 0.50005 0 0 0 13 12.5 L 13 9.8085938 L 14.722656 8.9472656 A 0.50005 0.50005 0 0 0 14.853516 8.1464844 L 13.207031 6.5 L 14.853516 4.8535156 A 0.50005 0.50005 0 0 0 14.722656 4.0527344 L 10.722656 2.0527344 A 0.50005 0.50005 0 0 0 10.146484 2.1464844 L 8.1464844 4.1464844 A 0.50005 0.50005 0 0 0 8 4.5039062 A 0.50005 0.50005 0 0 0 7.8535156 4.1464844 L 5.8535156 2.1464844 A 0.50005 0.50005 0 0 0 5.4921875 2 z M 5.4003906 3.1074219 L 6.65625 4.3632812 L 3.5996094 5.8925781 L 2.34375 4.6367188 L 5.4003906 3.1074219 z M 10.599609 3.1074219 L 13.65625 4.6367188 L 12.400391 5.8925781 L 9.34375 4.3632812 L 10.599609 3.1074219 z M 8 4.5078125 A 0.50005 0.50005 0 0 0 8.2773438 4.9472656 L 11.382812 6.5 L 8.2773438 8.0527344 A 0.50005 0.50005 0 0 0 8 8.4921875 A 0.50005 0.50005 0 0 0 7.7226562 8.0527344 L 4.6171875 6.5 L 7.7226562 4.9472656 A 0.50005 0.50005 0 0 0 8 4.5078125 z M 3.5996094 7.1074219 L 6.65625 8.6367188 L 5.4003906 9.8925781 L 2.34375 8.3632812 L 3.5996094 7.1074219 z M 12.400391 7.1074219 L 13.65625 8.3632812 L 10.599609 9.8925781 L 9.34375 8.6367188 L 12.400391 7.1074219 z M 8 8.4960938 A 0.50005 0.50005 0 0 0 8.1464844 8.8535156 L 10.146484 10.853516 A 0.50005 0.50005 0 0 0 10.722656 10.947266 L 12 10.308594 L 12 12.175781 L 8 13.953125 L 4 12.175781 L 4 10.308594 L 5.2773438 10.947266 A 0.50005 0.50005 0 0 0 5.8535156 10.853516 L 7.8535156 8.8535156 A 0.50005 0.50005 0 0 0 8 8.4960938 z"/></svg>